# xmcd CD database file generated by Grip 3.2.0
# 
# Track frame offsets:
#       150
#       14127
#       30070
#       51100
#       68340
#       84342
#       104957
#       116787
#       134817
#       150692
# 
# Disc length: 2217 seconds
# 
# Revision: 3
# Processed by: cddbd v1.5.2PL0 Copyright (c) Steve Scherf et al.
# Submitted via: Grip 3.2.0
# 
DISCID=8408a70a
DTITLE=Various, Country - Ultimate Country '96
DYEAR=1900
DGENRE=Country
TTITLE0=Vince Gill - What The Cowgirls Do
TTITLE1=Sammy Kershaw - Queen Of My Double Wide Trailer
TTITLE2=Lee Roy Parnell - On The Road
TTITLE3=Doug Supernaw - I Don't Call Him Daddy
TTITLE4=Alan Jackson - Tonight I Climbed The Wall
TTITLE5=Joe Diffie - John Deere Green
TTITLE6=Mark Chesnutt - Goin' Through The Big D
TTITLE7=Collin Raye - Little Rock
TTITLE8=George Jones - I Don't Need Your Rockin' Chair
TTITLE9=mixed artists - Save The Eagle
EXTD=
EXTT0=
EXTT1=
EXTT2=
EXTT3=
EXTT4=
EXTT5=
EXTT6=
EXTT7=
EXTT8=
EXTT9=
PLAYORDER=
